<?xml version="1.0" encoding="UTF-8" standalone="no"?>
<svg
   xmlns:dc="http://purl.org/dc/elements/1.1/"
   xmlns:cc="http://creativecommons.org/ns#"
   xmlns:rdf="http://www.w3.org/1999/02/22-rdf-syntax-ns#"
   xmlns:svg="http://www.w3.org/2000/svg"
   xmlns="http://www.w3.org/2000/svg"
   xmlns:sodipodi="http://sodipodi.sourceforge.net/DTD/sodipodi-0.dtd"
   xmlns:inkscape="http://www.inkscape.org/namespaces/inkscape"
   version="1.1"
   id="svg8087"
   viewBox="0 0 885.82675 283.46457"
   height="80mm"
   width="250mm"
   inkscape:version="0.91 r13725"
   sodipodi:docname="leylines-logo.svg">
  <sodipodi:namedview
     pagecolor="#ffffff"
     bordercolor="#666666"
     borderopacity="1"
     objecttolerance="10"
     gridtolerance="10"
     guidetolerance="10"
     inkscape:pageopacity="0"
     inkscape:pageshadow="2"
     inkscape:window-width="2556"
     inkscape:window-height="1395"
     id="namedview39"
     showgrid="false"
     inkscape:zoom="1.0030984"
     inkscape:cx="497.72062"
     inkscape:cy="-43.638166"
     inkscape:window-x="0"
     inkscape:window-y="1"
     inkscape:window-maximized="1"
     inkscape:current-layer="svg8087"
     inkscape:showpageshadow="false" />
  <defs
     id="defs8089">
    <filter
       id="filter7942"
       style="color-interpolation-filters:sRGB"
       x="-0.25"
       y="-0.25"
       width="1.5"
       height="1.5">
      <feGaussianBlur
         id="feGaussianBlur7944"
         result="result1"
         stdDeviation="4" />
      <feComposite
         id="feComposite7946"
         operator="in"
         result="result4"
         in2="result1"
         in="result1" />
      <feGaussianBlur
         id="feGaussianBlur7948"
         in="result4"
         result="result6"
         stdDeviation="2" />
      <feComposite
         id="feComposite7950"
         result="result8"
         in2="result4"
         in="result6"
         operator="xor" />
      <feComposite
         id="feComposite7952"
         in2="result8"
         in="result4"
         result="fbSourceGraphic"
         operator="atop" />
      <feSpecularLighting
         id="feSpecularLighting7954"
         in="fbSourceGraphic"
         result="result1"
         lighting-color="#ffffff"
         surfaceScale="3"
         specularConstant="1.29999995"
         specularExponent="10">
        <feDistantLight
           id="feDistantLight7956"
           elevation="55"
           azimuth="235" />
      </feSpecularLighting>
      <feComposite
         id="feComposite7958"
         in2="fbSourceGraphic"
         in="result1"
         result="result2"
         operator="atop" />
      <feComposite
         id="feComposite7960"
         in2="result2"
         in="fbSourceGraphic"
         result="result4"
         operator="arithmetic"
         k2="1"
         k3="1"
         k1="0"
         k4="0" />
      <feComposite
         id="feComposite7962"
         in2="SourceGraphic"
         in="result4"
         operator="over" />
      <feBlend
         id="feBlend7964"
         in2="result2"
         mode="multiply" />
    </filter>
  </defs>
  <metadata
     id="metadata8092">
    <rdf:RDF>
      <cc:Work
         rdf:about="">
        <dc:format>image/svg+xml</dc:format>
        <dc:type
           rdf:resource="http://purl.org/dc/dcmitype/StillImage" />
        <dc:title></dc:title>
      </cc:Work>
    </rdf:RDF>
  </metadata>
  <g
     transform="translate(-60.66465,-70.04099)"
     id="layer1">
    <path
       d="m 173.30709,145.73943 4.89922,148.35868 q 11.4745,0 22.94899,-2.57403 11.60342,-2.80806 23.72254,-5.1481 l 0.51572,7.72213 q -0.12893,0 -2.44962,0.70203 -2.19175,0.468 -5.93063,1.40402 -3.60996,0.70201 -8.25132,1.63803 -4.64137,0.93601 -9.28274,1.87203 -4.64136,0.93601 -8.89595,1.87204 -4.25459,0.93601 -7.34883,1.40402 -0.12893,0 -0.64464,0 -0.5157,0.234 -1.16034,0.234 -0.64464,0 -1.28926,0 -0.64464,0 -1.03142,0 -2.8364,0 -4.64138,-5.38209 -1.80497,-5.6161 -2.96531,-14.97627 -1.16034,-9.59418 -1.67605,-21.7624 -0.51571,-12.40223 -0.77357,-25.74047 -0.25785,-13.33824 -0.25785,-26.91048 0.12893,-13.57224 0.12893,-25.50646 0,-12.16822 -0.12893,-21.9964 0,-9.82818 -0.38678,-15.21028 l 4.89922,0 z"
       id="path6114-8"
       style="font-style:normal;font-variant:normal;font-weight:normal;font-stretch:normal;font-size:medium;line-height:125%;font-family:'Annie Use Your Telescope';-inkscape-font-specification:'Annie Use Your Telescope, Normal';text-align:start;letter-spacing:0px;word-spacing:0px;writing-mode:lr-tb;text-anchor:start;opacity:1;fill:#ffd700;fill-opacity:1;stroke:#ffd700;stroke-width:9;stroke-linecap:butt;stroke-linejoin:miter;stroke-miterlimit:4;stroke-dasharray:none;stroke-opacity:1;filter:url(#filter7942)"
       inkscape:connector-curvature="0" />
    <path
       d="m 240.29278,177.096 q 2.06283,-5.3821 5.41493,-9.12617 3.48102,-3.97807 7.60668,-6.55211 4.25459,-2.57405 9.02488,-3.97807 4.89922,-1.40404 9.54059,-2.10605 4.64137,-0.70201 9.02488,-0.93601 4.38351,-0.234 7.73562,-0.234 0.25785,0 1.16034,0.234 0.90248,0 1.9339,0.234 1.03142,0 1.80498,0 0.90248,0 1.28926,0 0.51571,5.1481 -0.64463,7.25413 -1.03141,1.87204 -2.83639,2.34005 -1.67605,0.234 -3.60996,-0.23401 -1.9339,-0.70201 -2.83639,-0.234 -1.28926,0.234 -4.12566,1.40402 -2.70746,0.93603 -6.05956,2.34005 -3.35209,1.17001 -7.2199,2.80805 -3.73888,1.40402 -7.21991,2.80805 -3.3521,1.17002 -6.05956,2.34005 -2.70747,1.17001 -3.99674,1.63802 -2.06283,1.40402 -2.32068,3.51006 -0.25785,2.10604 -0.25785,4.9141 0,4.91408 0.25785,10.99819 0.38678,6.08411 0.77356,12.16822 0.51571,5.85011 0.90249,10.7642 0.51571,4.91409 0.64463,7.25412 0.51571,0.23402 1.93391,0.23402 1.41819,0 1.9339,0 2.96532,0 5.80171,-0.93603 2.83639,-0.93601 5.67278,-2.10603 2.83639,-1.17003 5.80172,-1.87204 2.96531,-0.93601 6.05956,-0.93601 l 0,8.65815 q -1.28928,0 -3.60996,0.46802 -2.32068,0.234 -5.15707,1.17001 -2.70746,0.93602 -5.54386,2.10605 -2.83639,0.93601 -5.15707,2.10603 -2.32068,1.17003 -3.86781,2.34004 -1.41819,1.17002 -1.41819,2.34005 l 0,48.67288 q 6.05956,0 11.99019,-0.70201 6.05957,-0.70201 12.11913,-1.40403 6.05957,-0.93602 12.11913,-1.63803 6.05956,-0.70202 12.11912,-0.70202 0,2.80805 -1.03141,4.68009 -1.03141,1.63804 -2.44961,2.80805 -1.28927,0.93602 -2.83639,1.40402 -1.54712,0.46801 -2.32069,0.70201 -0.51571,0.23402 -3.22317,0.70203 -2.70746,0.468 -6.70419,1.40402 -3.99674,0.93601 -8.89596,1.87203 -4.89922,0.93602 -9.66952,1.87203 -4.77029,0.93603 -9.02487,1.87204 -4.25459,0.70201 -7.09099,1.17002 -0.38678,0.234 -1.16034,0.234 0,-31.35657 -1.16034,-63.18115 -1.03142,-32.05857 -5.15707,-62.94713 z"
       style="font-style:normal;font-variant:normal;font-weight:normal;font-stretch:normal;font-size:medium;line-height:125%;font-family:'Annie Use Your Telescope';-inkscape-font-specification:'Annie Use Your Telescope, Normal';text-align:start;letter-spacing:0px;word-spacing:0px;writing-mode:lr-tb;text-anchor:start;fill:#ffd700;fill-opacity:1;stroke:#ffd700;stroke-width:9;stroke-linecap:butt;stroke-linejoin:miter;stroke-miterlimit:4;stroke-dasharray:none;stroke-opacity:1;filter:url(#filter7942)"
       id="path6116-3"
       inkscape:connector-curvature="0" />
    <path
       d="m 397.9932,145.73943 4.89923,148.35868 q 11.47449,0 22.94898,-2.57403 11.60342,-2.80806 23.72255,-5.1481 l 0.5157,7.72213 q -0.12892,0 -2.4496,0.70203 -2.19176,0.468 -5.93064,1.40402 -3.60995,0.70201 -8.25132,1.63803 -4.64137,0.93601 -9.28273,1.87203 -4.64137,0.93601 -8.89596,1.87204 -4.25459,0.93601 -7.34884,1.40402 -0.12892,0 -0.64463,0 -0.51571,0.234 -1.16034,0.234 -0.64463,0 -1.28927,0 -0.64463,0 -1.03141,0 -2.83639,0 -4.64137,-5.38209 -1.80497,-5.6161 -2.96532,-14.97627 -1.16034,-9.59418 -1.67605,-21.7624 -0.5157,-12.40223 -0.77356,-25.74047 -0.25785,-13.33824 -0.25785,-26.91048 0.12893,-13.57224 0.12893,-25.50646 0,-12.16822 -0.12893,-21.9964 0,-9.82818 -0.38678,-15.21028 l 4.89921,0 z"
       style="font-style:normal;font-variant:normal;font-weight:normal;font-stretch:normal;font-size:medium;line-height:125%;font-family:'Annie Use Your Telescope';-inkscape-font-specification:'Annie Use Your Telescope, Normal';text-align:start;letter-spacing:0px;word-spacing:0px;writing-mode:lr-tb;text-anchor:start;fill:#ffd700;fill-opacity:1;stroke:#ffd700;stroke-width:9;stroke-linecap:butt;stroke-linejoin:miter;stroke-miterlimit:4;stroke-dasharray:none;stroke-opacity:1;filter:url(#filter7942)"
       id="path6120-9"
       inkscape:connector-curvature="0" />
    <path
       transform="matrix(1.2886182,0,0,0.98943414,-135.82366,2.2964345)"
       d="m 464.97888,138.4853 q 0,-2.80805 1.03142,-4.44607 1.16034,-1.87204 2.70747,-1.87204 0.12892,0 0.64463,0 0.51571,0 0.64463,0 0.64464,19.65635 1.16034,37.44068 0.51572,17.55031 0.77356,34.63263 0.38678,17.0823 0.51572,34.16461 0.12892,16.8483 0.12892,35.33464 0,2.57405 0.12892,7.02012 0.25786,4.44609 0.38678,8.65816 0.25786,4.21208 0.38679,7.72214 0.25785,3.27606 0.25785,3.51006 l -5.54385,1.87204 q -0.25786,-9.59417 -0.51571,-21.9964 -0.25785,-12.63623 -0.51571,-26.67648 -0.12893,-14.27425 -0.38678,-29.25053 -0.12893,-15.21028 -0.51571,-29.95255 -0.25785,-14.74226 -0.64463,-28.3145 -0.25786,-13.80626 -0.64464,-25.03846 l 0,-2.80805 z"
       style="font-style:normal;font-variant:normal;font-weight:normal;font-stretch:normal;font-size:medium;line-height:125%;font-family:'Annie Use Your Telescope';-inkscape-font-specification:'Annie Use Your Telescope, Normal';text-align:start;letter-spacing:0px;word-spacing:0px;writing-mode:lr-tb;text-anchor:start;fill:#ffd700;fill-opacity:1;stroke:#ffd700;stroke-width:9;stroke-linecap:butt;stroke-linejoin:miter;stroke-miterlimit:4;stroke-dasharray:none;stroke-opacity:1;filter:url(#filter7942)"
       id="path6122-4"
       inkscape:connector-curvature="0" />
    <path
       d="m 495.34933,163.75776 q 0,0.70201 -0.12892,3.04206 0,2.34004 0,4.91408 0,2.34005 0,4.68009 0,2.10603 0,2.80805 0,15.21027 0.38678,30.42055 0.38678,15.21028 0.90248,30.65456 0.51572,15.21028 0.9025,30.65455 0.38678,15.44428 0.38678,30.88856 l -4.64137,-0.46801 q -0.12893,-4.44608 -0.51571,-12.40222 -0.25786,-7.95615 -0.77356,-18.25234 -0.38678,-10.53018 -0.90249,-22.4644 -0.51571,-11.93421 -1.16034,-24.10243 -0.51571,-12.40223 -0.90249,-24.33645 -0.38678,-11.93422 -0.77356,-21.9964 -0.25785,-10.29618 -0.38679,-18.01832 -0.12892,-7.95615 0,-12.16822 0,-2.80805 1.16035,-4.68009 1.16034,-1.87203 2.70746,-1.87203 1.54713,0 3.48103,1.40402 2.06283,1.17003 2.70747,3.27606 l 46.41367,135.95647 q 0,-10.7642 -0.38678,-23.16643 -0.25786,-12.40221 -0.51571,-25.50646 -0.25785,-13.10424 -0.38678,-26.20847 0,-13.33824 0.25785,-25.74047 0.38678,-12.63623 1.28927,-23.86843 1.03142,-11.23221 2.8364,-20.35836 1.80497,-1.17003 2.83638,-1.17003 1.03142,-0.234 1.54712,0 0.51572,0.234 0.51572,1.17003 0.12892,0.93601 0.12892,1.87203 0,0.468 0,1.40403 0,0.93601 0,1.17001 -0.25786,1.40402 -0.64464,5.14809 -0.25784,3.74408 -0.77356,11.23221 -0.5157,7.25413 -0.90248,18.95434 -0.38678,11.70022 -0.77356,29.01653 -0.38678,17.31631 -0.64464,41.18475 -0.12892,23.86842 0,55.693 l -3.73888,0.46801 -49.50792,-139.23252 z"
       style="font-style:normal;font-variant:normal;font-weight:normal;font-stretch:normal;font-size:medium;line-height:125%;font-family:'Annie Use Your Telescope';-inkscape-font-specification:'Annie Use Your Telescope, Normal';text-align:start;letter-spacing:0px;word-spacing:0px;writing-mode:lr-tb;text-anchor:start;fill:#ffd700;fill-opacity:1;stroke:#ffd700;stroke-width:9;stroke-linecap:butt;stroke-linejoin:miter;stroke-miterlimit:4;stroke-dasharray:none;stroke-opacity:1;filter:url(#filter7942)"
       id="path6124-2"
       inkscape:connector-curvature="0" />
    <path
       d="m 568.71852,177.096 q 2.06282,-5.3821 5.41492,-9.12617 3.48103,-3.97807 7.60669,-6.55211 4.25459,-2.57405 9.02488,-3.97807 4.89922,-1.40404 9.54059,-2.10605 4.64136,-0.70201 9.02488,-0.93601 4.38351,-0.234 7.73561,-0.234 0.25786,0 1.16034,0.234 0.90249,0 1.93391,0.234 1.03142,0 1.80498,0 0.90248,0 1.28926,0 0.51571,5.1481 -0.64463,7.25413 -1.03141,1.87204 -2.83639,2.34005 -1.67605,0.234 -3.60995,-0.23401 -1.93391,-0.70201 -2.8364,-0.234 -1.28926,0.234 -4.12566,1.40402 -2.70746,0.93603 -6.05956,2.34005 -3.3521,1.17001 -7.2199,2.80805 -3.73888,1.40402 -7.21991,2.80805 -3.3521,1.17002 -6.05956,2.34005 -2.70747,1.17001 -3.99673,1.63802 -2.06284,1.40402 -2.32069,3.51006 -0.25785,2.10604 -0.25785,4.9141 0,4.91408 0.25785,10.99819 0.38678,6.08411 0.77357,12.16822 0.5157,5.85011 0.90248,10.7642 0.5157,4.91409 0.64464,7.25412 0.5157,0.23402 1.9339,0.23402 1.41819,0 1.9339,0 2.96532,0 5.80171,-0.93603 2.83639,-0.93601 5.67278,-2.10603 2.83639,-1.17003 5.80171,-1.87204 2.96532,-0.93601 6.05957,-0.93601 l 0,8.65815 q -1.28928,0 -3.60996,0.46802 -2.32068,0.234 -5.15707,1.17001 -2.70746,0.93602 -5.54386,2.10605 -2.83639,0.93601 -5.15707,2.10603 -2.32069,1.17003 -3.86781,2.34004 -1.4182,1.17002 -1.4182,2.34005 l 0,48.67288 q 6.05957,0 11.9902,-0.70201 6.05957,-0.70201 12.11913,-1.40403 6.05956,-0.93602 12.11913,-1.63803 6.05956,-0.70202 12.11912,-0.70202 0,2.80805 -1.03141,4.68009 -1.03142,1.63804 -2.44962,2.80805 -1.28926,0.93602 -2.83638,1.40402 -1.54712,0.46801 -2.32069,0.70201 -0.51571,0.23402 -3.22317,0.70203 -2.70747,0.468 -6.7042,1.40402 -3.99673,0.93601 -8.89595,1.87203 -4.89922,0.93602 -9.66952,1.87203 -4.77029,0.93603 -9.02488,1.87204 -4.25458,0.70201 -7.09098,1.17002 -0.38678,0.234 -1.16034,0.234 0,-31.35657 -1.16034,-63.18115 -1.03141,-32.05857 -5.15707,-62.94713 z"
       style="font-style:normal;font-variant:normal;font-weight:normal;font-stretch:normal;font-size:medium;line-height:125%;font-family:'Annie Use Your Telescope';-inkscape-font-specification:'Annie Use Your Telescope, Normal';text-align:start;letter-spacing:0px;word-spacing:0px;writing-mode:lr-tb;text-anchor:start;fill:#ffd700;fill-opacity:1;stroke:#ffd700;stroke-width:9;stroke-linecap:butt;stroke-linejoin:miter;stroke-miterlimit:4;stroke-dasharray:none;stroke-opacity:1;filter:url(#filter7942)"
       id="path6126-86"
       inkscape:connector-curvature="0" />
    <path
       d="m 646.72584,285.20596 q 0.64463,-2.80805 1.9339,-3.51006 1.41819,-0.70202 2.96531,3.51006 0,0.46801 1.16035,1.40402 1.28927,0.70201 3.09424,1.87204 1.93391,0.93601 4.38352,2.10603 2.57854,0.93603 5.02814,1.87204 2.44961,0.70201 4.7703,1.40402 2.32069,0.46802 3.99673,0.46802 4.38351,0 7.99347,-3.27606 3.73888,-3.51006 6.31741,-8.89216 2.70747,-5.3821 4.12566,-12.16823 1.4182,-7.02012 1.4182,-14.27425 0,-2.10604 -0.38678,-7.25414 -0.38678,-5.38209 -1.28927,-10.53019 -0.90249,-5.3821 -2.44961,-9.59417 -1.4182,-4.21207 -3.48102,-4.21207 -13.4084,2.80805 -22.0465,2.34003 -8.50918,-0.70201 -13.53732,-3.74407 -5.02815,-3.04205 -7.09098,-8.19014 -1.9339,-5.3821 -2.06283,-12.16822 0,-8.42416 2.32068,-16.14629 2.32069,-7.95615 5.93064,-14.04025 3.60995,-6.08411 7.99347,-9.59419 4.51243,-3.74406 8.89595,-3.74406 3.60995,0 7.47776,1.63803 3.99674,1.63804 7.34883,5.1481 3.3521,3.27606 5.41493,8.89215 2.19175,5.3821 2.19175,13.10424 -3.09424,0 -5.67277,-3.04206 -2.57854,-3.27606 -5.15708,-6.78612 -2.57854,-3.51006 -5.41493,-6.55212 -2.83639,-3.27606 -6.57527,-3.27606 -3.09424,0 -6.31742,2.80806 -3.09424,2.80805 -5.67278,7.25412 -2.44961,4.44609 -4.12566,10.0622 -1.54712,5.38209 -1.54712,11.23219 0,2.34005 0,5.1481 0.12893,2.57404 0.64463,5.14809 0.51571,2.34004 1.54712,3.97807 1.16034,1.63803 3.22318,1.63803 l 34.68132,0 q 2.19176,0 3.73888,2.57405 1.67605,2.34005 2.70747,6.08411 1.16034,3.74407 1.80498,8.42415 0.77356,4.68009 1.16034,9.12617 0.5157,4.44607 0.64464,8.42415 0.12892,3.74407 0.12892,5.85011 0,9.12616 -1.4182,17.31631 -1.41819,7.95614 -4.25458,14.50827 -2.83639,6.3181 -7.09098,10.53018 -4.25459,3.97807 -9.79844,4.91409 -2.70747,0.468 -7.09098,-0.23401 -4.25459,-0.70201 -8.6381,-2.57404 -4.38352,-2.10604 -8.25132,-5.6161 -3.86781,-3.74406 -5.67278,-9.36017 z"
       style="font-style:normal;font-variant:normal;font-weight:normal;font-stretch:normal;font-size:medium;line-height:125%;font-family:'Annie Use Your Telescope';-inkscape-font-specification:'Annie Use Your Telescope, Normal';text-align:start;letter-spacing:0px;word-spacing:0px;writing-mode:lr-tb;text-anchor:start;fill:#ffd700;fill-opacity:1;stroke:#ffd700;stroke-width:9;stroke-linecap:butt;stroke-linejoin:miter;stroke-miterlimit:4;stroke-dasharray:none;stroke-opacity:1;filter:url(#filter7942)"
       id="path6128-4"
       inkscape:connector-curvature="0" />
    <path
       d="m 709.19253,294.09811 q -0.51571,-3.51006 0,-5.38209 0.64463,-2.10604 1.67604,-3.04205 1.03142,-0.93603 2.32069,-0.93603 1.28927,-0.234 2.32068,-0.234 0.90249,0 2.19176,0.234 1.28927,0 2.32068,0.93603 1.03142,0.93601 1.54712,3.04205 0.51572,1.87203 0,5.38209 -0.12892,1.63804 -0.77356,3.27606 -0.64463,1.40403 -1.54712,2.80806 -0.77356,1.40403 -1.80497,2.34004 -1.03142,0.93601 -1.93391,0.93601 -1.03141,0 -2.06283,-0.93601 -1.03141,-0.93601 -1.9339,-2.34004 -0.90248,-1.40403 -1.54712,-2.80806 -0.51571,-1.63802 -0.77356,-3.27606 z"
       style="font-style:normal;font-variant:normal;font-weight:normal;font-stretch:normal;font-size:medium;line-height:125%;font-family:'Annie Use Your Telescope';-inkscape-font-specification:'Annie Use Your Telescope, Normal';text-align:start;letter-spacing:0px;word-spacing:0px;writing-mode:lr-tb;text-anchor:start;fill:#ffd700;fill-opacity:1;stroke:#ffd700;stroke-width:3.98004007;stroke-linecap:butt;stroke-linejoin:miter;stroke-miterlimit:4;stroke-dasharray:none;stroke-opacity:1;filter:url(#filter7942)"
       id="path6130-0"
       inkscape:connector-curvature="0" />
    <path
       d="m 731.82407,242.38318 q 0,-7.25413 0.77356,-16.14629 0.90249,-9.12617 2.57854,-18.25233 1.67604,-9.36017 4.12566,-18.01833 2.57853,-8.89216 5.80171,-15.67828 3.3521,-7.02013 7.47775,-11.2322 4.25459,-4.21208 9.28274,-4.21208 3.60995,0 6.05956,2.57405 2.57854,2.57404 4.12566,6.78612 1.54712,4.21208 2.19176,9.59417 0.77356,5.1481 0.77356,10.5302 -2.83639,0 -4.25459,-3.04207 -1.41819,-3.27606 -2.70746,-7.02012 -1.16034,-3.97807 -2.83639,-7.02013 -1.54713,-3.27606 -4.7703,-3.27606 -4.25458,0 -7.60668,4.21209 -3.22317,4.21207 -5.67279,10.99819 -2.4496,6.55212 -4.12565,14.97628 -1.54713,8.42414 -2.57854,16.8483 -0.90249,8.42416 -1.28927,16.38029 -0.38678,7.72214 -0.38678,13.10424 -0.51571,7.95614 -0.12893,16.6143 0.51571,8.42416 2.19176,15.67829 1.67605,7.02012 4.89922,11.93421 3.22317,4.68008 8.50918,5.38209 3.35209,0 7.47775,-1.87202 4.12566,-2.10605 8.1224,-4.68008 4.12565,-2.80807 7.86453,-5.85011 3.73889,-3.27606 6.31742,-5.61611 l 0,9.12617 q -0.12893,0 -1.67605,1.17002 -1.41819,0.93601 -3.86781,2.57405 -2.32068,1.63802 -5.41492,3.51006 -2.96532,1.87204 -5.93064,3.97807 -2.96531,1.87204 -5.80171,3.74407 -2.70747,1.63803 -4.64137,2.80805 -0.12892,0 -0.5157,0 -0.38678,0.234 -0.64464,0.234 -7.09097,0 -11.73234,-5.38209 -4.51244,-5.6161 -7.21991,-14.27426 -2.70746,-8.89217 -3.73888,-19.65636 -1.03141,-10.99819 -1.03141,-21.52839 z"
       style="font-style:normal;font-variant:normal;font-weight:normal;font-stretch:normal;font-size:medium;line-height:125%;font-family:'Annie Use Your Telescope';-inkscape-font-specification:'Annie Use Your Telescope, Normal';text-align:start;letter-spacing:0px;word-spacing:0px;writing-mode:lr-tb;text-anchor:start;fill:#ffd700;fill-opacity:1;stroke:#ffd700;stroke-width:9;stroke-linecap:butt;stroke-linejoin:miter;stroke-miterlimit:4;stroke-dasharray:none;stroke-opacity:1;filter:url(#filter7942)"
       id="path6132-7"
       inkscape:connector-curvature="0" />
    <path
       d="m 803.19655,255.95542 q 0,-16.8483 0,-31.82456 0.12893,-14.97628 0.38678,-29.48455 0.38679,-14.74226 0.90249,-29.71853 0.51571,-15.21027 1.4182,-32.76059 l 3.73888,0 0,89.85762 28.10605,0 q -0.12892,-8.42415 -0.12892,-18.01833 0,-9.82817 -0.12892,-19.65635 -0.12894,-10.06218 -0.25786,-19.42235 0,-9.59418 0,-18.01832 0,-8.42416 0,-14.74227 0,-6.31812 0,-9.82818 0.38678,0 1.28927,0.46801 1.03141,0.234 1.9339,0.93601 1.03142,0.46802 1.80498,1.63804 0.77356,0.93601 0.77356,2.57404 l 0,175.26917 -3.99673,-1.40402 q -0.25786,0 -0.38678,-3.04206 -0.12893,-3.04205 -0.25786,-7.48814 0,-4.68008 -0.12892,-10.53019 0,-6.08411 -0.12894,-11.7002 0,-5.85011 -0.12892,-10.99821 0,-5.14808 0,-8.65816 0,-3.27604 0,-8.89215 0,-5.6161 -0.12892,-12.87023 l -28.23499,9.12617 -0.25786,66.69119 -6.18849,0 q 0,-0.234 0,-3.27605 0,-3.04206 0,-7.48814 0,-4.68009 0,-10.06218 0,-5.6161 0,-10.7642 0,-5.14809 0,-9.36016 0,-4.21208 0,-6.55213 z"
       style="font-style:normal;font-variant:normal;font-weight:normal;font-stretch:normal;font-size:medium;line-height:125%;font-family:'Annie Use Your Telescope';-inkscape-font-specification:'Annie Use Your Telescope, Normal';text-align:start;letter-spacing:0px;word-spacing:0px;writing-mode:lr-tb;text-anchor:start;fill:#ffd700;fill-opacity:1;stroke:#ffd700;stroke-width:9;stroke-linecap:butt;stroke-linejoin:miter;stroke-miterlimit:4;stroke-dasharray:none;stroke-opacity:1;filter:url(#filter7942)"
       id="path6134-2"
       inkscape:connector-curvature="0" />
    <path
       id="path3070-4-4-70"
       d="m 368.76149,89.542887 c -1.78352,0.0851 -4.4605,0.83337 -4.97944,1.56788 -0.26577,0.37669 -0.35143,1.84041 -0.19097,3.2549 0.53051,4.70121 0.5061,13.941843 -0.0464,18.502453 -0.2992,2.47515 -0.49039,4.67964 -0.4229,4.89662 0.15142,0.48696 -1.6273,6.45549 -2.06546,6.92918 -0.17608,0.18973 -0.95954,-0.25072 -1.74349,-0.97932 -1.39185,-1.29037 -1.47305,-1.30875 -3.42695,-0.722 -2.77435,0.83428 -3.10742,1.4699 -2.24551,4.26999 1.76402,5.73917 2.46188,13.48206 2.06816,22.94158 -0.50653,12.13938 -1.09839,18.15698 -2.25916,22.92965 -0.41214,1.69365 -0.75209,3.54056 -0.75307,4.10319 -0.003,0.56171 -0.16995,1.89867 -0.3738,2.96897 -0.20346,1.07156 -0.52514,3.00297 -0.71212,4.2938 -0.32705,2.25563 -0.71753,4.74503 -1.12688,7.28184 -5.06569,-11.57055 -6.77634,-20.81878 -5.16498,-27.93594 0.59078,-2.60665 0.58568,-3.32626 -0.03,-3.81724 -1.18154,-0.94224 -4.46239,-2.13246 -5.6261,-2.03966 -0.99308,0.0786 -1.10942,0.21294 -2.03543,2.38518 -1.49553,3.50666 -2.39108,4.84656 -2.94674,4.40339 -0.25353,-0.20215 -1.26967,-1.97524 -2.25918,-3.93875 -0.98747,-1.96363 -2.07843,-3.96078 -2.42015,-4.43917 -0.34059,-0.47746 -1.28942,-2.22251 -2.10909,-3.8768 -1.9724,-3.98086 -6.73957,-12.45015 -10.77473,-19.14578 -3.43307,-5.69583 -7.1271,-12.55086 -8.77201,-16.28404 -1.23772,-2.80774 -4.31616,-11.67173 -4.83755,-13.92509 l -0.39292,-1.70369 -1.23599,0.006 c -1.29496,0.004 -4.53687,1.5424 -5.54969,2.63299 -0.32499,0.34995 -0.45514,1.11372 -0.28921,1.69656 0.19993,0.70953 0.1581,0.86554 -0.1283,0.47178 -0.23493,-0.324 -1.17317,-1.461 -2.08729,-2.52576 -1.48033,-1.72557 -1.76679,-1.93307 -2.65477,-1.90384 -1.30954,0.044 -4.51879,3.00967 -4.502,4.16036 0.006,0.4424 0.83283,1.71875 1.83627,2.83789 3.33275,3.72086 8.9829,11.53165 11.31495,15.64071 1.26623,2.22976 2.45647,4.18029 2.64662,4.33194 0.42664,0.34023 2.58941,6.21215 2.51017,6.81716 -0.0323,0.2426 -0.96464,0.23872 -2.07362,-0.009 -1.96692,-0.43805 -2.04459,-0.41616 -3.33419,0.99364 -1.83041,2.00276 -1.72561,2.69767 0.72032,4.65839 5.01109,4.0199 10.3528,10.22916 15.82509,18.39996 7.02149,10.48616 10.21484,15.84545 12.1635,20.4182 0.69131,1.62281 1.53548,3.33939 1.87991,3.81485 0.34238,0.47555 1.0242,1.68161 1.50885,2.68063 0.48575,0.99993 1.3985,2.78287 2.03272,3.96023 3.51687,6.53039 7.92346,15.17284 10.87564,21.33557 0.63741,1.33075 1.25583,2.55301 1.84171,3.67664 0.71143,4.55309 1.27688,9.9152 1.29328,13.10063 0.014,2.4889 0.0993,4.69698 0.19374,4.90618 0.21169,0.46953 -0.80543,6.57362 -1.18142,7.08646 -0.15119,0.20543 -0.98733,-0.15629 -1.85808,-0.8054 -1.54553,-1.14923 -1.62676,-1.15878 -3.49518,-0.38842 -2.65282,1.09502 -2.90552,1.75761 -1.6971,4.45825 2.4743,5.53553 4.14164,13.16304 4.93854,22.60323 1.02133,12.11465 1.18725,18.15558 0.63298,23.01066 -0.19691,1.72291 -0.30163,3.58912 -0.23193,4.14844 0.068,0.55862 0.0688,1.9047 0,2.98804 -0.0676,1.08456 -0.14269,3.03336 -0.16642,4.33431 -0.13238,7.21566 -0.53341,16.67103 -0.98771,23.3395 -0.2838,4.1626 -0.33013,7.97825 -0.10359,8.4804 0.54113,1.20015 2.61277,1.49222 6.24547,0.87687 2.91472,-0.49375 6.94087,-1.946 7.42143,-2.67589 0.59409,-0.90319 1.19507,-5.13318 1.16777,-8.22066 -0.0147,-1.77423 0.0923,-5.48286 0.23738,-8.2421 0.81793,-15.47661 4.09101,-26.39887 9.90707,-33.06846 1.84391,-2.1137 2.20173,-2.76092 1.89629,-3.4384 -0.58624,-1.30015 -2.93548,-3.62968 -4.02724,-3.99356 -0.93142,-0.31094 -1.09977,-0.23653 -3.02586,1.3582 -3.10991,2.57419 -4.58916,3.43508 -4.86487,2.82364 -0.12571,-0.27898 -0.14721,-2.26237 -0.0464,-4.4058 0.1027,-2.14277 0.13127,-4.35484 0.0655,-4.91573 -0.0652,-0.55964 -0.0403,-2.49328 0.0572,-4.2938 0.23469,-4.33268 0.2223,-13.76997 -0.0273,-21.33318 -0.21283,-6.43403 -0.0738,-14.00808 0.33015,-17.99252 0.22232,-2.19675 1.19494,-7.66737 1.96176,-11.32306 0.43191,-1.22796 0.86384,-2.90571 1.17596,-4.59165 l 0.0381,-0.12866 -0.0163,-0.006 c 0.1088,-0.60139 0.2211,-1.20894 0.28648,-1.76568 0.20811,-1.76492 0.78053,-5.44194 1.27148,-8.17061 2.757,-15.30485 7.38102,-25.84542 13.99974,-31.91757 2.0983,-1.92431 2.53498,-2.53557 2.31647,-3.23823 -0.41934,-1.34848 -2.46116,-3.88948 -3.50063,-4.35573 -0.88672,-0.3983 -1.06387,-0.33791 -3.17865,1.0627 -3.41445,2.26073 -4.99505,2.97411 -5.19229,2.33992 -0.0899,-0.28936 0.14077,-2.26347 0.51023,-4.38436 0.37122,-2.11996 0.67709,-4.31613 0.68214,-4.87995 0.005,-0.56252 0.27442,-2.48015 0.59752,-4.26048 0.77753,-4.28404 1.95019,-13.66776 2.65206,-21.20926 0.59663,-6.41557 1.68455,-13.93023 2.58659,-17.85193 0.67794,-2.94979 3.51853,-11.876293 4.46103,-14.022763 l 0.71216,-1.62029 -1.04774,-0.57429 c -1.09639,-0.60178 -4.77569,-0.81845 -6.30003,-0.37169 -0.48915,0.14336 -1.06756,0.72651 -1.28511,1.29624 -0.26661,0.69262 -0.39819,0.80482 -0.39835,0.33834 4.9e-4,-0.38347 -0.0944,-1.78279 -0.21283,-3.10955 -0.19095,-2.14969 -0.30735,-2.45894 -1.07502,-2.84982 -0.28314,-0.1439 -0.77789,-0.19036 -1.37242,-0.16201 z"
       style="fill:#ffd700;fill-opacity:1;fill-rule:evenodd;stroke:#ffd700;stroke-width:0;stroke-miterlimit:4;stroke-dasharray:none;stroke-opacity:1;filter:url(#filter7942)"
       inkscape:connector-curvature="0" />
    <path
       d="m 174.73567,146.45371 4.89922,148.35868 q 11.47449,0 22.94898,-2.57403 11.60342,-2.80806 23.72254,-5.1481 l 0.51572,7.72213 q -0.12893,0 -2.44961,0.70203 -2.19176,0.468 -5.93064,1.40402 -3.60996,0.70201 -8.25132,1.63803 -4.64137,0.93601 -9.28274,1.87203 -4.64136,0.93601 -8.89595,1.87204 -4.25459,0.93601 -7.34883,1.40402 -0.12893,0 -0.64464,0 -0.5157,0.234 -1.16034,0.234 -0.64464,0 -1.28926,0 -0.64464,0 -1.03142,0 -2.83639,0 -4.64137,-5.38209 -1.80498,-5.6161 -2.96532,-14.97627 -1.16034,-9.59418 -1.67604,-21.7624 -0.51571,-12.40223 -0.77357,-25.74047 -0.25785,-13.33824 -0.25785,-26.91048 0.12893,-13.57224 0.12893,-25.50646 0,-12.16822 -0.12893,-21.9964 0,-9.82818 -0.38678,-15.21028 l 4.89922,0 z"
       id="path6114-6"
       style="font-style:normal;font-variant:normal;font-weight:normal;font-stretch:normal;font-size:medium;line-height:125%;font-family:'Annie Use Your Telescope';-inkscape-font-specification:'Annie Use Your Telescope, Normal';text-align:start;letter-spacing:0px;word-spacing:0px;writing-mode:lr-tb;text-anchor:start;opacity:1;fill:#000000;fill-opacity:1;stroke:#000000;stroke-width:2.9000001;stroke-linecap:butt;stroke-linejoin:miter;stroke-miterlimit:4;stroke-dasharray:none;stroke-opacity:1"
       inkscape:connector-curvature="0" />
    <path
       d="m 241.72135,177.81028 q 2.06283,-5.3821 5.41493,-9.12617 3.48102,-3.97807 7.60668,-6.55211 4.25459,-2.57405 9.02488,-3.97807 4.89922,-1.40404 9.54059,-2.10605 4.64137,-0.70201 9.02488,-0.93601 4.38351,-0.234 7.73562,-0.234 0.25785,0 1.16034,0.234 0.90248,0 1.9339,0.234 1.03142,0 1.80498,0 0.90248,0 1.28926,0 0.51571,5.1481 -0.64463,7.25413 -1.03141,1.87204 -2.83639,2.34005 -1.67605,0.234 -3.60996,-0.23401 -1.9339,-0.70201 -2.83639,-0.234 -1.28926,0.234 -4.12566,1.40402 -2.70746,0.93603 -6.05956,2.34005 -3.35209,1.17001 -7.2199,2.80805 -3.73888,1.40402 -7.21991,2.80805 -3.3521,1.17002 -6.05956,2.34005 -2.70747,1.17001 -3.99674,1.63802 -2.06283,1.40402 -2.32068,3.51006 -0.25785,2.10604 -0.25785,4.9141 0,4.91408 0.25785,10.99819 0.38678,6.08411 0.77356,12.16822 0.51571,5.85011 0.90249,10.7642 0.51571,4.91409 0.64463,7.25412 0.51571,0.23402 1.93391,0.23402 1.41819,0 1.9339,0 2.96532,0 5.80171,-0.93603 2.83639,-0.93601 5.67278,-2.10603 2.83639,-1.17003 5.80172,-1.87204 2.96531,-0.93601 6.05956,-0.93601 l 0,8.65815 q -1.28928,0 -3.60996,0.46802 -2.32068,0.234 -5.15707,1.17001 -2.70746,0.93602 -5.54386,2.10605 -2.83639,0.93601 -5.15707,2.10603 -2.32068,1.17003 -3.86781,2.34004 -1.41819,1.17002 -1.41819,2.34005 l 0,48.67288 q 6.05956,0 11.99019,-0.70201 6.05957,-0.70201 12.11913,-1.40403 6.05957,-0.93602 12.11913,-1.63803 6.05956,-0.70202 12.11912,-0.70202 0,2.80805 -1.03141,4.68009 -1.03141,1.63804 -2.44961,2.80805 -1.28927,0.93602 -2.83639,1.40402 -1.54712,0.46801 -2.32069,0.70201 -0.51571,0.23402 -3.22317,0.70203 -2.70746,0.468 -6.70419,1.40402 -3.99674,0.93601 -8.89596,1.87203 -4.89922,0.93602 -9.66952,1.87203 -4.77029,0.93603 -9.02487,1.87204 -4.25459,0.70201 -7.09099,1.17002 -0.38678,0.234 -1.16034,0.234 0,-31.35657 -1.16034,-63.18115 -1.03142,-32.05857 -5.15707,-62.94713 z"
       style="font-style:normal;font-variant:normal;font-weight:normal;font-stretch:normal;font-size:medium;line-height:125%;font-family:'Annie Use Your Telescope';-inkscape-font-specification:'Annie Use Your Telescope, Normal';text-align:start;letter-spacing:0px;word-spacing:0px;writing-mode:lr-tb;text-anchor:start;fill:#000000;fill-opacity:1;stroke:#000000;stroke-width:2.9000001;stroke-linecap:butt;stroke-linejoin:miter;stroke-miterlimit:4;stroke-dasharray:none;stroke-opacity:1"
       id="path6116-4"
       inkscape:connector-curvature="0" />
    <path
       d="m 399.42177,146.45371 4.89923,148.35868 q 11.47449,0 22.94898,-2.57403 11.60342,-2.80806 23.72255,-5.1481 l 0.5157,7.72213 q -0.12892,0 -2.4496,0.70203 -2.19176,0.468 -5.93064,1.40402 -3.60995,0.70201 -8.25132,1.63803 -4.64137,0.93601 -9.28273,1.87203 -4.64137,0.93601 -8.89596,1.87204 -4.25459,0.93601 -7.34884,1.40402 -0.12892,0 -0.64463,0 -0.51571,0.234 -1.16034,0.234 -0.64463,0 -1.28927,0 -0.64463,0 -1.03141,0 -2.83639,0 -4.64137,-5.38209 -1.80497,-5.6161 -2.96532,-14.97627 -1.16034,-9.59418 -1.67605,-21.7624 -0.5157,-12.40223 -0.77356,-25.74047 -0.25785,-13.33824 -0.25785,-26.91048 0.12893,-13.57224 0.12893,-25.50646 0,-12.16822 -0.12893,-21.9964 0,-9.82818 -0.38678,-15.21028 l 4.89921,0 z"
       style="font-style:normal;font-variant:normal;font-weight:normal;font-stretch:normal;font-size:medium;line-height:125%;font-family:'Annie Use Your Telescope';-inkscape-font-specification:'Annie Use Your Telescope, Normal';text-align:start;letter-spacing:0px;word-spacing:0px;writing-mode:lr-tb;text-anchor:start;fill:#000000;fill-opacity:1;stroke:#000000;stroke-width:2.9000001;stroke-linecap:butt;stroke-linejoin:miter;stroke-miterlimit:4;stroke-dasharray:none;stroke-opacity:1"
       id="path6120-97"
       inkscape:connector-curvature="0" />
    <path
       d="m 464.40745,139.19958 q 0,-2.80805 1.03142,-4.44607 1.16034,-1.87204 2.70747,-1.87204 0.12892,0 0.64463,0 0.51571,0 0.64463,0 0.64464,19.65635 1.16034,37.44068 0.51572,17.55031 0.77356,34.63263 0.38678,17.0823 0.51572,34.16461 0.12892,16.8483 0.12892,35.33464 0,2.57405 0.12892,7.02012 0.25786,4.44609 0.38678,8.65816 0.25786,4.21208 0.38679,7.72214 0.25785,3.27606 0.25785,3.51006 l -5.54385,1.87204 q -0.25786,-9.59417 -0.51571,-21.9964 -0.25785,-12.63623 -0.51571,-26.67648 -0.12893,-14.27425 -0.38678,-29.25053 -0.12893,-15.21028 -0.51571,-29.95255 -0.25785,-14.74226 -0.64463,-28.3145 -0.25786,-13.80626 -0.64464,-25.03846 l 0,-2.80805 z"
       style="font-style:normal;font-variant:normal;font-weight:normal;font-stretch:normal;font-size:medium;line-height:125%;font-family:'Annie Use Your Telescope';-inkscape-font-specification:'Annie Use Your Telescope, Normal';text-align:start;letter-spacing:0px;word-spacing:0px;writing-mode:lr-tb;text-anchor:start;fill:#000000;fill-opacity:1;stroke:#000000;stroke-width:2.9000001;stroke-linecap:butt;stroke-linejoin:miter;stroke-miterlimit:4;stroke-dasharray:none;stroke-opacity:1"
       id="path6122-43"
       inkscape:connector-curvature="0" />
    <path
       d="m 496.7779,164.47204 q 0,0.70201 -0.12892,3.04206 0,2.34004 0,4.91408 0,2.34005 0,4.68009 0,2.10603 0,2.80805 0,15.21027 0.38678,30.42055 0.38678,15.21028 0.90248,30.65456 0.51572,15.21028 0.9025,30.65455 0.38678,15.44428 0.38678,30.88856 l -4.64137,-0.46801 q -0.12893,-4.44608 -0.51571,-12.40222 -0.25786,-7.95615 -0.77356,-18.25234 -0.38678,-10.53018 -0.90249,-22.4644 -0.51571,-11.93421 -1.16034,-24.10243 -0.51571,-12.40223 -0.90249,-24.33645 -0.38678,-11.93422 -0.77356,-21.9964 -0.25785,-10.29618 -0.38679,-18.01832 -0.12892,-7.95615 0,-12.16822 0,-2.80805 1.16035,-4.68009 1.16034,-1.87203 2.70746,-1.87203 1.54713,0 3.48103,1.40402 2.06283,1.17003 2.70747,3.27606 l 46.41367,135.95647 q 0,-10.7642 -0.38678,-23.16643 -0.25786,-12.40221 -0.51571,-25.50646 -0.25785,-13.10424 -0.38678,-26.20847 0,-13.33824 0.25785,-25.74047 0.38678,-12.63623 1.28927,-23.86843 1.03142,-11.23221 2.8364,-20.35836 1.80497,-1.17003 2.83638,-1.17003 1.03142,-0.234 1.54712,0 0.51572,0.234 0.51572,1.17003 0.12892,0.93601 0.12892,1.87203 0,0.468 0,1.40403 0,0.93601 0,1.17001 -0.25786,1.40402 -0.64464,5.14809 -0.25784,3.74408 -0.77356,11.23221 -0.5157,7.25413 -0.90248,18.95434 -0.38678,11.70022 -0.77356,29.01653 -0.38678,17.31631 -0.64464,41.18475 -0.12892,23.86842 0,55.693 l -3.73888,0.46801 -49.50792,-139.23252 z"
       style="font-style:normal;font-variant:normal;font-weight:normal;font-stretch:normal;font-size:medium;line-height:125%;font-family:'Annie Use Your Telescope';-inkscape-font-specification:'Annie Use Your Telescope, Normal';text-align:start;letter-spacing:0px;word-spacing:0px;writing-mode:lr-tb;text-anchor:start;fill:#000000;fill-opacity:1;stroke:#000000;stroke-width:2.9000001;stroke-linecap:butt;stroke-linejoin:miter;stroke-miterlimit:4;stroke-dasharray:none;stroke-opacity:1"
       id="path6124-3"
       inkscape:connector-curvature="0" />
    <path
       d="m 570.14709,177.81028 q 2.06282,-5.3821 5.41492,-9.12617 3.48103,-3.97807 7.60669,-6.55211 4.25459,-2.57405 9.02488,-3.97807 4.89922,-1.40404 9.54059,-2.10605 4.64136,-0.70201 9.02488,-0.93601 4.38351,-0.234 7.73561,-0.234 0.25786,0 1.16034,0.234 0.90249,0 1.93391,0.234 1.03142,0 1.80498,0 0.90248,0 1.28926,0 0.51571,5.1481 -0.64463,7.25413 -1.03141,1.87204 -2.83639,2.34005 -1.67605,0.234 -3.60995,-0.23401 -1.93391,-0.70201 -2.8364,-0.234 -1.28926,0.234 -4.12566,1.40402 -2.70746,0.93603 -6.05956,2.34005 -3.3521,1.17001 -7.2199,2.80805 -3.73888,1.40402 -7.21991,2.80805 -3.3521,1.17002 -6.05956,2.34005 -2.70747,1.17001 -3.99673,1.63802 -2.06284,1.40402 -2.32069,3.51006 -0.25785,2.10604 -0.25785,4.9141 0,4.91408 0.25785,10.99819 0.38678,6.08411 0.77357,12.16822 0.5157,5.85011 0.90248,10.7642 0.5157,4.91409 0.64464,7.25412 0.5157,0.23402 1.9339,0.23402 1.41819,0 1.9339,0 2.96532,0 5.80171,-0.93603 2.83639,-0.93601 5.67278,-2.10603 2.83639,-1.17003 5.80171,-1.87204 2.96532,-0.93601 6.05957,-0.93601 l 0,8.65815 q -1.28928,0 -3.60996,0.46802 -2.32068,0.234 -5.15707,1.17001 -2.70746,0.93602 -5.54386,2.10605 -2.83639,0.93601 -5.15707,2.10603 -2.32069,1.17003 -3.86781,2.34004 -1.4182,1.17002 -1.4182,2.34005 l 0,48.67288 q 6.05957,0 11.9902,-0.70201 6.05957,-0.70201 12.11913,-1.40403 6.05956,-0.93602 12.11913,-1.63803 6.05956,-0.70202 12.11912,-0.70202 0,2.80805 -1.03141,4.68009 -1.03142,1.63804 -2.44962,2.80805 -1.28926,0.93602 -2.83638,1.40402 -1.54712,0.46801 -2.32069,0.70201 -0.51571,0.23402 -3.22317,0.70203 -2.70747,0.468 -6.7042,1.40402 -3.99673,0.93601 -8.89595,1.87203 -4.89922,0.93602 -9.66952,1.87203 -4.77029,0.93603 -9.02488,1.87204 -4.25458,0.70201 -7.09098,1.17002 -0.38678,0.234 -1.16034,0.234 0,-31.35657 -1.16034,-63.18115 -1.03141,-32.05857 -5.15707,-62.94713 z"
       style="font-style:normal;font-variant:normal;font-weight:normal;font-stretch:normal;font-size:medium;line-height:125%;font-family:'Annie Use Your Telescope';-inkscape-font-specification:'Annie Use Your Telescope, Normal';text-align:start;letter-spacing:0px;word-spacing:0px;writing-mode:lr-tb;text-anchor:start;fill:#000000;fill-opacity:1;stroke:#000000;stroke-width:2.9000001;stroke-linecap:butt;stroke-linejoin:miter;stroke-miterlimit:4;stroke-dasharray:none;stroke-opacity:1"
       id="path6126-7"
       inkscape:connector-curvature="0" />
    <path
       d="m 648.15441,285.92024 q 0.64463,-2.80805 1.9339,-3.51006 1.41819,-0.70202 2.96531,3.51006 0,0.46801 1.16035,1.40402 1.28927,0.70201 3.09424,1.87204 1.93391,0.93601 4.38352,2.10603 2.57854,0.93603 5.02814,1.87204 2.44961,0.70201 4.7703,1.40402 2.32069,0.46802 3.99673,0.46802 4.38351,0 7.99347,-3.27606 3.73888,-3.51006 6.31741,-8.89216 2.70747,-5.3821 4.12566,-12.16823 1.4182,-7.02012 1.4182,-14.27425 0,-2.10604 -0.38678,-7.25414 -0.38678,-5.38209 -1.28927,-10.53019 -0.90249,-5.3821 -2.44961,-9.59417 -1.4182,-4.21207 -3.48102,-4.21207 -13.4084,2.80805 -22.0465,2.34003 -8.50918,-0.70201 -13.53732,-3.74407 -5.02815,-3.04205 -7.09098,-8.19014 -1.9339,-5.3821 -2.06283,-12.16822 0,-8.42416 2.32068,-16.14629 2.32069,-7.95615 5.93064,-14.04025 3.60995,-6.08411 7.99347,-9.59419 4.51243,-3.74406 8.89595,-3.74406 3.60995,0 7.47776,1.63803 3.99674,1.63804 7.34883,5.1481 3.3521,3.27606 5.41493,8.89215 2.19175,5.3821 2.19175,13.10424 -3.09424,0 -5.67277,-3.04206 -2.57854,-3.27606 -5.15708,-6.78612 -2.57854,-3.51006 -5.41493,-6.55212 -2.83639,-3.27606 -6.57527,-3.27606 -3.09424,0 -6.31742,2.80806 -3.09424,2.80805 -5.67278,7.25412 -2.44961,4.44609 -4.12566,10.0622 -1.54712,5.38209 -1.54712,11.23219 0,2.34005 0,5.1481 0.12893,2.57404 0.64463,5.14809 0.51571,2.34004 1.54712,3.97807 1.16034,1.63803 3.22318,1.63803 l 34.68132,0 q 2.19176,0 3.73888,2.57405 1.67605,2.34005 2.70747,6.08411 1.16034,3.74407 1.80498,8.42415 0.77356,4.68009 1.16034,9.12617 0.5157,4.44607 0.64464,8.42415 0.12892,3.74407 0.12892,5.85011 0,9.12616 -1.4182,17.31631 -1.41819,7.95614 -4.25458,14.50827 -2.83639,6.3181 -7.09098,10.53018 -4.25459,3.97807 -9.79844,4.91409 -2.70747,0.468 -7.09098,-0.23401 -4.25459,-0.70201 -8.6381,-2.57404 -4.38352,-2.10604 -8.25132,-5.6161 -3.86781,-3.74406 -5.67278,-9.36017 z"
       style="font-style:normal;font-variant:normal;font-weight:normal;font-stretch:normal;font-size:medium;line-height:125%;font-family:'Annie Use Your Telescope';-inkscape-font-specification:'Annie Use Your Telescope, Normal';text-align:start;letter-spacing:0px;word-spacing:0px;writing-mode:lr-tb;text-anchor:start;fill:#000000;fill-opacity:1;stroke:#000000;stroke-width:2.9000001;stroke-linecap:butt;stroke-linejoin:miter;stroke-miterlimit:4;stroke-dasharray:none;stroke-opacity:1"
       id="path6128-40"
       inkscape:connector-curvature="0" />
    <path
       d="m 710.6211,294.81239 q -0.51571,-3.51006 0,-5.38209 0.64463,-2.10604 1.67604,-3.04205 1.03142,-0.93603 2.32069,-0.93603 1.28927,-0.234 2.32068,-0.234 0.90249,0 2.19176,0.234 1.28927,0 2.32068,0.93603 1.03142,0.93601 1.54712,3.04205 0.51572,1.87203 0,5.38209 -0.12892,1.63804 -0.77356,3.27606 -0.64463,1.40403 -1.54712,2.80806 -0.77356,1.40403 -1.80497,2.34004 -1.03142,0.93601 -1.93391,0.93601 -1.03141,0 -2.06283,-0.93601 -1.03141,-0.93601 -1.9339,-2.34004 -0.90248,-1.40403 -1.54712,-2.80806 -0.51571,-1.63802 -0.77356,-3.27606 z"
       style="font-style:normal;font-variant:normal;font-weight:normal;font-stretch:normal;font-size:medium;line-height:125%;font-family:'Annie Use Your Telescope';-inkscape-font-specification:'Annie Use Your Telescope, Normal';text-align:start;letter-spacing:0px;word-spacing:0px;writing-mode:lr-tb;text-anchor:start;fill:#000000;fill-opacity:1;stroke:#000000;stroke-width:0;stroke-linecap:butt;stroke-linejoin:miter;stroke-miterlimit:4;stroke-dasharray:none;stroke-opacity:1"
       id="path6130-5"
       inkscape:connector-curvature="0" />
    <path
       d="m 733.25264,243.09746 q 0,-7.25413 0.77356,-16.14629 0.90249,-9.12617 2.57854,-18.25233 1.67604,-9.36017 4.12566,-18.01833 2.57853,-8.89216 5.80171,-15.67828 3.3521,-7.02013 7.47775,-11.2322 4.25459,-4.21208 9.28274,-4.21208 3.60995,0 6.05956,2.57405 2.57854,2.57404 4.12566,6.78612 1.54712,4.21208 2.19176,9.59417 0.77356,5.1481 0.77356,10.5302 -2.83639,0 -4.25459,-3.04207 -1.41819,-3.27606 -2.70746,-7.02012 -1.16034,-3.97807 -2.83639,-7.02013 -1.54713,-3.27606 -4.7703,-3.27606 -4.25458,0 -7.60668,4.21209 -3.22317,4.21207 -5.67279,10.99819 -2.4496,6.55212 -4.12565,14.97628 -1.54713,8.42414 -2.57854,16.8483 -0.90249,8.42416 -1.28927,16.38029 -0.38678,7.72214 -0.38678,13.10424 -0.51571,7.95614 -0.12893,16.6143 0.51571,8.42416 2.19176,15.67829 1.67605,7.02012 4.89922,11.93421 3.22317,4.68008 8.50918,5.38209 3.35209,0 7.47775,-1.87202 4.12566,-2.10605 8.1224,-4.68008 4.12565,-2.80807 7.86453,-5.85011 3.73889,-3.27606 6.31742,-5.61611 l 0,9.12617 q -0.12893,0 -1.67605,1.17002 -1.41819,0.93601 -3.86781,2.57405 -2.32068,1.63802 -5.41492,3.51006 -2.96532,1.87204 -5.93064,3.97807 -2.96531,1.87204 -5.80171,3.74407 -2.70747,1.63803 -4.64137,2.80805 -0.12892,0 -0.5157,0 -0.38678,0.234 -0.64464,0.234 -7.09097,0 -11.73234,-5.38209 -4.51244,-5.6161 -7.21991,-14.27426 -2.70746,-8.89217 -3.73888,-19.65636 -1.03141,-10.99819 -1.03141,-21.52839 z"
       style="font-style:normal;font-variant:normal;font-weight:normal;font-stretch:normal;font-size:medium;line-height:125%;font-family:'Annie Use Your Telescope';-inkscape-font-specification:'Annie Use Your Telescope, Normal';text-align:start;letter-spacing:0px;word-spacing:0px;writing-mode:lr-tb;text-anchor:start;fill:#000000;fill-opacity:1;stroke:#000000;stroke-width:2.9000001;stroke-linecap:butt;stroke-linejoin:miter;stroke-miterlimit:4;stroke-dasharray:none;stroke-opacity:1"
       id="path6132-2"
       inkscape:connector-curvature="0" />
    <path
       d="m 804.62512,256.6697 q 0,-16.8483 0,-31.82456 0.12893,-14.97628 0.38678,-29.48455 0.38679,-14.74226 0.90249,-29.71853 0.51571,-15.21027 1.4182,-32.76059 l 3.73888,0 0,89.85762 28.10605,0 q -0.12892,-8.42415 -0.12892,-18.01833 0,-9.82817 -0.12892,-19.65635 -0.12894,-10.06218 -0.25786,-19.42235 0,-9.59418 0,-18.01832 0,-8.42416 0,-14.74227 0,-6.31811 0,-9.82817 0.38678,0 1.28927,0.46801 1.03141,0.234 1.9339,0.93601 1.03142,0.46802 1.80498,1.63804 0.77356,0.93601 0.77356,2.57403 l 0,175.26917 -3.99673,-1.40402 q -0.25786,0 -0.38678,-3.04206 -0.12893,-3.04205 -0.25786,-7.48814 0,-4.68008 -0.12892,-10.53019 0,-6.08411 -0.12894,-11.7002 0,-5.85011 -0.12892,-10.99821 0,-5.14808 0,-8.65816 0,-3.27604 0,-8.89215 0,-5.6161 -0.12892,-12.87023 l -28.23499,9.12617 -0.25786,66.69119 -6.18849,0 q 0,-0.234 0,-3.27605 0,-3.04206 0,-7.48814 0,-4.68009 0,-10.06218 0,-5.6161 0,-10.7642 0,-5.14809 0,-9.36016 0,-4.21208 0,-6.55213 z"
       style="font-style:normal;font-variant:normal;font-weight:normal;font-stretch:normal;font-size:medium;line-height:125%;font-family:'Annie Use Your Telescope';-inkscape-font-specification:'Annie Use Your Telescope, Normal';text-align:start;letter-spacing:0px;word-spacing:0px;writing-mode:lr-tb;text-anchor:start;fill:#000000;fill-opacity:1;stroke:#000000;stroke-width:2.9000001;stroke-linecap:butt;stroke-linejoin:miter;stroke-miterlimit:4;stroke-dasharray:none;stroke-opacity:1"
       id="path6134-57"
       inkscape:connector-curvature="0" />
  </g>
</svg>
